<svg width="255" height="182" viewBox="0 0 255 182" fill="none" xmlns="http://www.w3.org/2000/svg">
<path d="M241.713 2.02344C241.885 2.14648 242.1 2.30472 242.349 2.5C243.074 3.06913 244.09 3.94421 245.209 5.14062C247.447 7.53477 250.078 11.195 251.637 16.2539C254.72 26.2594 253.792 42.3885 235.698 65.959C217.251 89.989 205.87 111.987 200.882 128.55C198.395 136.808 197.449 143.872 198.126 149.219C198.535 152.45 199.581 155.235 201.363 157.203C199.804 157.597 197.866 158.082 195.592 158.638C189.079 160.229 179.816 162.413 168.823 164.779C146.828 169.514 117.948 174.972 90.3262 177.895C62.608 180.827 36.4983 181.162 19.8535 175.873C11.5469 173.234 5.98645 169.317 3.51074 164.019C1.05255 158.757 1.36478 151.54 6.17871 141.643C15.9846 121.481 27.6849 105.004 38.5459 91.1309C49.3259 77.3607 59.5074 65.8929 65.8994 56.1543C72.2871 46.4223 75.5336 37.4993 71.1836 28.9463C69.0602 24.7712 65.227 20.9187 59.5713 17.1963C55.6798 14.6351 50.8688 12.0984 45.0439 9.53809L241.713 2.02344Z" fill="white" stroke="#FF012C" stroke-width="4"/>
<path opacity="0.7" d="M75.2237 149.28C68.1649 151.714 63.4109 149.38 60.9615 142.277C60.1096 139.807 59.7734 137.257 59.9528 134.628C60.1612 131.94 60.6944 129.263 61.5524 126.598C62.4104 123.933 63.4463 121.354 64.6603 118.862C65.8743 116.37 67.0829 114.078 68.2862 111.984C66.3831 113.48 64.6375 115.217 63.0492 117.196C61.4899 119.116 60.1162 121.145 58.9281 123.282C58.6528 123.772 58.3607 124.07 58.0519 124.177C57.7872 124.268 57.6016 124.159 57.4951 123.85C57.4038 123.586 57.4221 123.209 57.5498 122.721C58.5508 119.611 60.1664 116.71 62.3966 114.015C64.6709 111.306 67.2882 108.947 70.2486 106.939C73.1938 104.887 76.1664 103.343 79.1664 102.309C81.3723 101.548 83.6253 101.067 85.9255 100.867C88.2257 100.666 90.4338 100.842 92.5499 101.396C94.6508 101.905 96.5205 102.89 98.159 104.349C99.7974 105.808 101.05 107.794 101.917 110.309C102.739 112.691 102.942 115.213 102.527 117.874C102.14 120.475 101.297 123.111 99.9961 125.781C98.6955 128.45 97.0692 131.035 95.1174 133.535C93.2098 136.019 91.1157 138.321 88.8353 140.44C86.555 142.559 84.2419 144.369 81.896 145.869C79.5654 147.413 77.3413 148.55 75.2237 149.28ZM73.9412 147.279C76.4118 146.427 78.9501 144.984 81.556 142.95C84.2061 140.901 86.6827 138.492 88.9859 135.723C91.318 132.895 93.3162 129.886 94.9805 126.696C96.6447 123.506 97.756 120.358 98.3143 117.253C98.9015 114.089 98.731 111.161 97.803 108.47C97.1793 106.661 96.2429 105.306 94.9939 104.403C93.7449 103.501 92.3225 102.955 90.7267 102.765C89.1598 102.516 87.5365 102.532 85.857 102.815C84.1623 103.054 82.587 103.425 81.1312 103.927C79.5429 104.474 78.0004 105.154 76.5034 105.967C75.0354 106.72 73.613 107.605 72.2362 108.623C72.6485 108.53 73.1794 108.495 73.829 108.518C74.4786 108.541 75.0848 108.653 75.6477 108.853C76.2106 109.054 76.5833 109.419 76.7659 109.949C76.9028 110.346 76.759 110.716 76.3346 111.06C74.8848 112.152 73.4168 113.621 71.9305 115.467C70.4442 117.312 69.0637 119.392 67.7889 121.708C66.4988 123.979 65.4165 126.351 64.5418 128.825C63.7112 131.283 63.1749 133.665 62.9331 135.97C62.6912 138.275 62.8821 140.331 63.5059 142.14C65.3011 147.346 68.7795 149.059 73.9412 147.279ZM124.584 132.777C122.467 133.507 120.382 133.831 118.329 133.749C116.292 133.711 114.449 133.162 112.8 132.102C111.151 131.041 109.821 129.402 108.809 127.184C107.948 125.26 107.519 123.014 107.522 120.446C107.554 117.818 107.939 115.069 108.677 112.199C109.458 109.313 110.499 106.461 111.798 103.644C113.097 100.826 114.583 98.1914 116.255 95.7391C117.971 93.2715 119.786 91.1645 121.702 89.4181C123.617 87.6716 125.567 86.4561 127.552 85.7715C129.141 85.2238 130.727 85.2443 132.313 85.833C133.898 86.4218 134.987 87.5764 135.58 89.297C136.052 90.6646 136.006 91.9638 135.443 93.1945C134.865 94.3811 133.893 95.2103 132.525 95.6819C132.481 95.6971 132.253 95.7511 131.84 95.8439C131.428 95.9367 131.154 95.8584 131.019 95.6089C131.057 95.0034 131.294 94.4032 131.731 93.8084C132.212 93.1984 132.58 92.4788 132.837 91.6497C133.079 90.7765 132.898 89.6789 132.294 88.3569C131.976 87.578 131.455 87.1406 130.731 87.0448C130.036 86.8896 129.313 86.9413 128.563 87.2C126.71 87.8389 124.93 89.0453 123.221 90.8192C121.498 92.5489 119.933 94.6681 118.528 97.1767C117.151 99.626 115.938 102.265 114.89 105.095C113.886 107.909 113.111 110.744 112.565 113.598C112.063 116.436 111.855 119.124 111.94 121.662C112.01 124.155 112.445 126.276 113.245 128.024C114.15 129.933 115.542 131.107 117.421 131.545C119.344 131.968 121.21 131.867 123.019 131.244C125.092 130.529 127.14 129.452 129.162 128.015C131.168 126.533 133.07 124.89 134.866 123.086C136.707 121.266 138.378 119.456 139.88 117.655C141.381 115.853 142.649 114.232 143.681 112.789C144.759 111.332 145.522 110.254 145.972 109.556C146.001 109.497 146.038 109.459 146.082 109.444C146.17 109.414 146.252 109.509 146.328 109.729C146.389 109.906 146.414 110.12 146.402 110.371C146.433 110.606 146.377 110.873 146.233 111.169C145.323 113.112 144.09 115.191 142.534 117.406C141.006 119.561 139.264 121.668 137.308 123.725C135.352 125.781 133.268 127.611 131.056 129.213C128.903 130.843 126.746 132.032 124.584 132.777ZM177.987 113.991C177.193 114.265 176.404 114.34 175.621 114.215C174.897 114.119 174.157 113.905 173.401 113.574C172.348 113.098 171.123 112.409 169.727 111.509C168.33 110.608 166.859 109.635 165.313 108.588C163.797 107.482 162.339 106.405 160.941 105.357C159.572 104.249 158.396 103.273 157.413 102.427C157.104 102.533 156.744 102.633 156.332 102.726C155.919 102.819 155.521 102.882 155.138 102.915C154.4 102.923 153.993 102.816 153.917 102.596C153.856 102.419 153.943 102.241 154.177 102.062C154.412 101.882 154.676 101.717 154.969 101.566C156.349 100.844 158.007 99.9265 159.944 98.8144C161.865 97.6582 163.785 96.3545 165.703 94.9031C167.651 93.3925 169.405 91.8248 170.968 90.2C172.559 88.5159 173.722 86.8067 174.457 85.0725C175.176 83.2941 175.239 81.5446 174.646 79.824C174.174 78.4564 173.382 77.4463 172.268 76.7936C171.155 76.141 169.859 75.7485 168.382 75.6162C166.934 75.4245 165.429 75.4253 163.866 75.6185C162.304 75.8117 160.824 76.1 159.426 76.4834C158.056 76.8075 156.909 77.1292 155.982 77.4487C153.688 78.2398 151.265 79.3717 148.712 80.8443C146.159 82.3169 143.704 83.9288 141.346 85.6798C138.988 87.4308 136.969 89.1636 135.29 90.8781C135.261 90.9374 135.188 91.012 135.071 91.1017C134.998 91.1763 134.917 91.2288 134.829 91.2592C134.564 91.3505 134.371 91.2197 134.249 90.8667C133.945 89.9844 134.164 89.045 134.906 88.0485C135.633 87.008 136.678 85.9567 138.039 84.8949C139.445 83.8178 140.991 82.7909 142.679 81.8142C144.35 80.7934 146.009 79.876 147.653 79.0621C149.342 78.233 150.833 77.5461 152.126 77.0015C153.448 76.3975 154.395 75.9967 154.969 75.7989C156.204 75.3729 157.668 74.9667 159.362 74.5803C161.04 74.1497 162.793 73.866 164.622 73.7291C166.479 73.5328 168.273 73.5807 170.002 73.8728C171.732 74.1649 173.251 74.7764 174.559 75.7074C175.897 76.5791 176.877 77.9193 177.501 79.7281C178.261 81.934 178.262 84.0813 177.501 86.17C176.74 88.2588 175.491 90.2197 173.754 92.0529C172.061 93.8709 170.115 95.5291 167.917 97.0276C165.748 98.4668 163.65 99.6838 161.623 100.679C162.535 101.747 163.706 102.996 165.138 104.428C166.613 105.844 168.162 107.186 169.784 108.453C171.405 109.72 172.936 110.723 174.375 111.461C175.843 112.139 176.996 112.334 177.834 112.045C178.584 111.786 179.067 111.324 179.281 110.657C179.524 109.932 179.59 109.119 179.477 108.22C179.365 107.321 179.194 106.467 178.964 105.658C178.719 104.804 178.505 104.113 178.323 103.583L178.186 103.186C178.049 102.789 178.091 102.553 178.311 102.477C178.708 102.34 179.145 102.461 179.621 102.84C180.097 103.218 180.522 103.664 180.897 104.177C181.271 104.689 181.511 105.1 181.618 105.409C182.086 106.482 182.231 107.616 182.051 108.814C181.857 109.967 181.402 111.012 180.689 111.949C179.991 112.93 179.09 113.611 177.987 113.991ZM153.041 124.963C152.071 125.298 151.265 125.181 150.625 124.612C149.999 124.087 149.519 123.339 149.185 122.369C148.683 120.913 148.405 119.034 148.352 116.732C148.283 114.386 148.353 111.87 148.562 109.181C148.799 106.434 149.118 103.708 149.518 101.003C149.918 98.2981 150.312 95.7925 150.702 93.4862C151.135 91.1647 151.5 89.2867 151.795 87.8521C152.005 86.7431 152.214 85.5603 152.422 84.3037C152.616 83.003 152.899 81.8194 153.271 80.753C153.385 80.3681 153.692 80.0403 154.191 79.7695C154.69 79.4987 155.094 79.31 155.403 79.2035C155.755 79.0818 156.183 79.0331 156.685 79.0575C157.172 79.0377 157.499 79.2704 157.666 79.7557L157.712 79.8881C157.91 80.4616 157.865 81.1188 157.577 81.8597C156.703 85.7648 155.782 89.5377 154.816 93.1781C153.894 96.8033 153.159 100.611 152.61 104.601C152.456 105.444 152.255 106.649 152.005 108.216C151.74 109.739 151.477 111.409 151.216 113.227C150.998 115.03 150.905 116.765 150.937 118.432C150.954 120.056 151.197 121.403 151.665 122.476C151.741 122.696 151.869 122.924 152.049 123.158C152.272 123.377 152.538 123.434 152.847 123.327C153.068 123.251 153.247 123.411 153.383 123.809C153.46 124.029 153.462 124.25 153.39 124.473C153.378 124.724 153.262 124.887 153.041 124.963Z" fill="#090909"/>
<path d="M107.038 102.433C102.985 103.094 99.6062 102.96 96.9011 102.03C94.1886 101.054 91.9535 99.5277 90.196 97.4503C88.431 95.3268 87.0664 92.7598 86.1023 89.7491C85.1307 86.6923 84.3555 83.3907 83.7768 79.8443C83.2056 76.3439 82.8755 73.017 82.7865 69.8635C82.736 66.6564 83.1907 63.7925 84.1506 61.2716C85.103 58.7048 86.6907 56.5543 88.9138 54.8203C91.1369 53.0863 94.275 51.8887 98.3281 51.2273C102.381 50.5659 105.764 50.7232 108.477 51.6991C111.228 52.6214 113.463 54.148 115.182 56.279C116.901 58.41 118.246 61.0039 119.218 64.0606C120.182 67.0713 120.949 70.3268 121.52 73.8272C122.092 77.3276 122.422 80.6545 122.511 83.808C122.6 86.9615 122.168 89.8217 121.216 92.3886C120.302 94.9019 118.714 97.0523 116.453 98.8399C114.229 100.574 111.091 101.772 107.038 102.433ZM106.227 97.4587C108.99 97.0078 111.045 96.1287 112.392 94.8213C113.732 93.4679 114.62 91.81 115.056 89.8474C115.531 87.8313 115.638 85.5914 115.378 83.1278C115.157 80.6107 114.816 77.9473 114.358 75.1378C113.9 72.3283 113.375 69.695 112.785 67.238C112.234 64.7274 111.412 62.5918 110.321 60.8312C109.269 59.017 107.869 57.685 106.123 56.8351C104.415 55.9317 102.18 55.7055 99.4161 56.1564C96.6987 56.5998 94.6472 57.502 93.2616 58.8629C91.8685 60.1777 90.9115 61.847 90.3906 63.8706C89.9083 65.8407 89.7586 68.1111 89.9417 70.6818C90.1633 73.199 90.5109 75.9084 90.9843 78.81C91.4578 81.7116 91.9934 84.414 92.5909 86.9171C93.2271 89.3666 94.0869 91.4487 95.1705 93.1632C96.3002 94.8702 97.7344 96.1256 99.4732 96.9294C101.258 97.7257 103.509 97.9021 106.227 97.4587ZM142.299 49.1588C140.042 49.5271 138.302 50.3076 137.078 51.5002C135.847 52.6469 134.986 54.1822 134.496 56.1062C134.052 58.0227 133.903 60.2931 134.047 62.9174C134.192 65.5417 134.531 68.4889 135.064 71.759C135.561 74.7988 136.13 77.5665 136.774 80.0621C137.456 82.5041 138.335 84.5593 139.411 86.2278C140.487 87.8963 141.845 89.1169 143.484 89.8897C145.116 90.6164 147.152 90.7806 149.593 90.3822C151.666 90.044 153.291 89.4243 154.468 88.523C155.691 87.6142 156.576 86.5239 157.126 85.2522C157.713 83.927 158.017 82.4588 158.038 80.8478C158.097 79.1832 157.981 77.4527 157.687 75.6565L164.596 74.5291C165.009 77.0623 165.097 79.4831 164.859 81.7916C164.614 84.054 163.935 86.127 162.824 88.0105C161.752 89.8405 160.162 91.4002 158.055 92.6896C155.995 93.9715 153.353 94.8755 150.129 95.4015C146.306 96.0253 143.115 95.8841 140.556 94.9778C137.996 94.0714 135.857 92.5528 134.138 90.4218C132.465 88.2833 131.132 85.6166 130.137 82.4217C129.143 79.2267 128.323 75.6488 127.677 71.6879C127.128 68.3257 126.794 65.1176 126.674 62.0638C126.554 59.0099 126.912 56.2799 127.749 53.8737C128.624 51.414 130.108 49.3514 132.2 47.686C134.293 46.0206 137.25 44.8761 141.073 44.2523C142.409 44.0343 143.671 43.9465 144.86 43.9889C146.088 43.9778 147.207 44.1734 148.218 44.5757C149.268 44.9245 150.172 45.5337 150.928 46.4032C151.723 47.2191 152.375 48.3185 152.885 49.7011L153.23 49.6448L153.563 42.9943L159.021 42.1037L161.783 59.0298L154.944 60.1459C154.305 56.231 152.926 53.2879 150.808 51.3167C148.728 49.2919 145.892 48.5726 142.299 49.1588ZM195.514 82.96L200.674 81.5506L188.55 66.3649L182.47 67.3569L185.063 83.2467L191.714 83.5801L192.39 87.7252L172.701 90.9381L172.024 86.793L178.224 84.3628L171.911 45.6745L165.26 45.3412L164.584 41.196L186.001 37.7013C189.225 37.1752 191.868 37.1458 193.93 37.6131C196.031 38.0269 197.716 38.7921 198.986 39.9089C200.294 40.9721 201.275 42.3487 201.929 44.0388C202.576 45.6828 203.057 47.472 203.372 49.4064C203.643 51.0645 203.764 52.676 203.736 54.241C203.753 55.7985 203.492 57.2361 202.95 58.5538C202.409 59.8715 201.541 61.0769 200.348 62.17C199.156 63.263 197.53 64.1666 195.471 64.8808L208 79.504L212.647 80.1642L213.323 84.3094L196.19 87.1052L195.514 82.96ZM188.672 61.0256C190.698 60.6949 192.276 60.2246 193.406 59.6146C194.575 58.9512 195.421 58.1983 195.946 57.3562C196.463 56.468 196.727 55.4792 196.738 54.3898C196.742 53.2544 196.643 52.0649 196.44 50.8213C196.207 49.3936 195.908 48.142 195.543 47.0667C195.171 45.9453 194.599 45.0457 193.826 44.368C193.046 43.6442 192.001 43.1765 190.689 42.9649C189.417 42.6997 187.767 42.7324 185.741 43.0631L178.694 44.213L181.625 62.1754L188.672 61.0256Z" fill="#C80000"/>
<rect opacity="0.2" x="73.2215" y="52.0104" width="133.676" height="60.1584" transform="rotate(-9.47715 73.2215 52.0104)" fill="#FF0000"/>
</svg>
